HIERARCHY
ROOT Hips
{
	OFFSET -0.001795 -0.223333 0.028219
	CHANNELS 6 Xposition Yposition Zposition Zrotation Yrotation Xrotation 
	JOINT LeftUpLeg
	{
		OFFSET 0.069520 -0.091406 -0.006815
		CHANNELS 3 Zrotation Yrotation Xrotation
		JOINT LeftLeg
		{
			OFFSET 0.034277 -0.375199 -0.004496
			CHANNELS 3 Zrotation Yrotation Xrotation
			JOINT LeftFoot
			{
				OFFSET -0.013596 -0.397961 -0.043693
				CHANNELS 3 Zrotation Yrotation Xrotation
				JOINT LeftToe
				{
					OFFSET 0.026358 -0.055791 0.119288
					CHANNELS 3 Zrotation Yrotation Xrotation
					End Site
					{
						OFFSET 0.000000 0.000000 0.000000
					}
				}
			}
		}
	}
	JOINT RightUpLeg
	{
		OFFSET -0.067670 -0.090522 -0.004320
		CHANNELS 3 Zrotation Yrotation Xrotation
		JOINT RightLeg
		{
			OFFSET -0.038290 -0.382569 -0.008850
			CHANNELS 3 Zrotation Yrotation Xrotation
			JOINT RightFoot
			{
				OFFSET 0.015774 -0.398415 -0.042312
				CHANNELS 3 Zrotation Yrotation Xrotation
				JOINT RightToe
				{
					OFFSET -0.025372 -0.048144 0.123348
					CHANNELS 3 Zrotation Yrotation Xrotation
					End Site
					{
						OFFSET 0.000000 0.000000 0.000000
					}
				}
			}
		}
	}
	JOINT Spine
	{
		OFFSET -0.002533 0.108963 -0.026696
		CHANNELS 3 Zrotation Yrotation Xrotation
		JOINT Spine1
		{
			OFFSET 0.005487 0.135180 0.001092
			CHANNELS 3 Zrotation Yrotation Xrotation
			JOINT Spine2
			{
				OFFSET 0.001457 0.052922 0.025425
				CHANNELS 3 Zrotation Yrotation Xrotation
				JOINT Neck
				{
					OFFSET -0.002778 0.213870 -0.042857
					CHANNELS 3 Zrotation Yrotation Xrotation
					JOINT Head
					{
						OFFSET 0.005152 0.064970 0.051349
						CHANNELS 3 Zrotation Yrotation Xrotation
						End Site
						{
							OFFSET 0.000000 0.000000 0.000000
						}
					}
				}
				JOINT LeftShoulder
				{
					OFFSET 0.078845 0.121749 -0.034090
					CHANNELS 3 Zrotation Yrotation Xrotation
					JOINT LeftArm
					{
						OFFSET 0.090977 0.030469 -0.008868
						CHANNELS 3 Zrotation Yrotation Xrotation
						JOINT LeftForeArm
						{
							OFFSET 0.259612 -0.012772 -0.027456
							CHANNELS 3 Zrotation Yrotation Xrotation
							JOINT LeftHand
							{
								OFFSET 0.249234 0.008986 -0.001171
								CHANNELS 3 Zrotation Yrotation Xrotation
								End Site
								{
									OFFSET 0.000000 0.000000 0.000000
								}
							}
						}
					}
				}
				JOINT RightShoulder
				{
					OFFSET -0.081759 0.118833 -0.038615
					CHANNELS 3 Zrotation Yrotation Xrotation
					JOINT RightArm
					{
						OFFSET -0.096012 0.032551 -0.009143
						CHANNELS 3 Zrotation Yrotation Xrotation
						JOINT RightForeArm
						{
							OFFSET -0.253742 -0.013329 -0.021401
							CHANNELS 3 Zrotation Yrotation Xrotation
							JOINT RightHand
							{
								OFFSET -0.255298 0.007772 -0.005559
								CHANNELS 3 Zrotation Yrotation Xrotation
								End Site
								{
									OFFSET 0.000000 0.000000 0.000000
								}
							}
						}
					}
				}
			}
		}
	}
}
MOTION
Frames: 18
Frame Time: 0.050000
0.000000 0.941285 0.000000 0.006249 1.139920 -0.854173 -4.166362 0.516358 3.706143 0.471887 -0.065169 0.365779 -3.549647 -5.462691 3.529251 0.000000 0.000000 0.000000 -1.003904 1.841192 -20.201257 2.973469 0.086847 43.910271 -2.142745 -4.384100 -2.642163 0.000000 0.000000 0.000000 3.445567 -0.377718 5.059133 -0.343224 0.232081 -2.444028 -3.628773 0.878279 11.948665 6.735841 -2.245932 -20.787791 0.000000 0.000000 0.000000 -24.090797 -9.690014 2.988407 -44.524788 -5.575141 -3.719843 -4.819744 -33.969876 2.757634 0.000000 0.000000 0.000000 23.884077 1.976713 -0.177069 52.873022 0.807693 -5.653091 6.453474 29.872101 2.895182 0.000000 0.000000 0.000000 
0.000383 0.938684 0.028522 -0.761119 1.096221 -0.385289 -2.415100 0.730664 6.308857 -1.022588 0.155046 -1.782381 -3.626300 -6.006898 2.877910 0.000000 0.000000 0.000000 -0.275088 2.327214 -24.027444 2.611979 0.149287 32.386172 -1.949706 -7.377874 7.478268 0.000000 0.000000 0.000000 4.022812 -0.375500 4.550695 0.234058 -0.032569 -2.392933 -4.548352 2.041384 12.229632 7.997557 -2.423913 -23.231864 0.000000 0.000000 0.000000 -22.986836 -9.438908 2.422734 -45.890536 -6.085950 -3.526828 -3.784063 -35.251697 2.436522 0.000000 0.000000 0.000000 22.544744 0.897642 -0.323419 55.390526 0.159801 -6.263591 5.995689 30.736608 3.009826 0.000000 0.000000 0.000000 
0.000118 0.934015 0.059696 -0.767746 1.558253 0.141564 -2.536717 0.914594 7.890728 -0.466865 0.108073 -1.937152 -3.498673 -6.622842 1.424863 0.000000 0.000000 0.000000 0.035435 2.494078 -25.344718 1.891431 0.119993 16.161077 -0.670699 -7.601870 17.849929 0.000000 0.000000 0.000000 4.445405 -0.367667 4.082034 -0.521972 0.344189 -3.560896 -4.167482 2.809243 13.397832 7.121158 -1.778293 -23.655304 0.000000 0.000000 0.000000 -23.301784 -10.395541 2.695728 -45.585666 -6.493529 -3.348576 -4.648154 -34.573565 2.593457 0.000000 0.000000 0.000000 21.331579 0.018657 -0.492477 56.827976 -0.745845 -6.912325 6.620815 30.059873 3.172792 0.000000 0.000000 0.000000 
-0.000892 0.927185 0.093881 -0.713769 2.441129 0.235089 -1.973346 1.106210 10.303725 -0.854322 0.152027 -2.349786 -3.594134 -7.819872 -0.111269 0.000000 0.000000 0.000000 -0.572790 2.370214 -25.893483 3.239844 -0.305595 6.531509 1.636355 -4.950605 22.583660 0.000000 0.000000 0.000000 4.562351 -0.372402 4.032706 -0.952580 0.547224 -3.724053 -3.936144 2.180610 13.434555 6.874854 -1.629729 -23.889700 0.000000 0.000000 0.000000 -23.867588 -9.937472 2.452973 -45.348093 -5.708401 -3.604197 -5.514014 -36.765432 3.063536 0.000000 0.000000 0.000000 21.125498 0.154010 -0.445738 57.116661 -1.234847 -7.155996 6.891064 29.974043 3.224265 0.000000 0.000000 0.000000 
-0.002701 0.919476 0.131298 -0.569328 2.601164 0.620482 -2.477120 1.342747 12.023484 0.361796 0.025533 -1.687485 -3.135263 -8.021561 -1.873726 0.000000 0.000000 0.000000 -0.209630 2.424403 -25.756035 3.286301 -0.336262 3.549557 2.554198 -3.290208 21.944181 0.000000 0.000000 0.000000 5.122485 -0.336458 3.239300 -1.027634 0.572510 -3.349981 -4.562188 3.163354 12.793668 7.483486 -2.043435 -22.216150 0.000000 0.000000 0.000000 -23.697260 -10.198113 2.165628 -46.025248 -4.418793 -3.942442 -7.718477 -36.953274 3.678863 0.000000 0.000000 0.000000 21.625393 -0.443385 -0.496903 57.188370 -1.187800 -7.121140 6.403545 29.127729 3.057447 0.000000 0.000000 0.000000 
-0.005127 0.912417 0.172193 -0.291280 3.019846 0.753490 -2.732311 1.522502 13.485294 1.182837 -0.133516 0.224144 -3.041100 -8.334609 -2.610923 0.000000 0.000000 0.000000 0.355361 2.524519 -25.808713 2.487286 -0.182756 6.596778 2.715322 -2.213050 19.664407 0.000000 0.000000 0.000000 5.465451 -0.339492 3.080832 -1.051362 0.574952 -2.855918 -4.978175 3.270164 11.920141 8.076245 -2.330149 -22.094413 0.000000 0.000000 0.000000 -25.267209 -10.120240 1.833476 -45.473176 -2.815246 -4.301369 -8.203047 -36.475795 3.741899 0.000000 0.000000 0.000000 21.434570 0.182874 -0.037494 58.262176 -0.720698 -6.934404 4.104482 28.086988 2.393364 0.000000 0.000000 0.000000 
-0.008527 0.909167 0.216617 -0.182251 3.935067 0.943353 -2.399455 1.507792 14.038227 1.444881 -0.354036 4.123653 -3.143666 -7.899949 -1.693651 0.000000 0.000000 0.000000 1.318440 2.620944 -25.244516 1.276457 0.096590 10.547480 1.819232 -2.471027 16.333332 0.000000 0.000000 0.000000 5.754779 -0.255141 1.970896 -0.732020 0.406597 -1.792829 -5.658446 2.856633 10.486238 8.726383 -2.729776 -21.568161 0.000000 0.000000 0.000000 -24.846795 -9.601795 1.417522 -46.912348 -1.893361 -4.681933 -8.836947 -33.725820 3.603804 0.000000 0.000000 0.000000 23.089165 -0.083971 -0.207829 56.876755 -0.295542 -6.541247 3.818195 27.533659 2.253219 0.000000 0.000000 0.000000 
-0.012958 0.911974 0.263412 -0.646294 3.903082 1.112509 -1.604088 1.310724 13.140220 1.431379 -0.687691 10.287492 -3.794187 -6.097751 3.026090 0.000000 0.000000 0.000000 2.296917 2.734184 -24.404386 1.665403 0.069789 14.312426 1.021832 -2.423191 11.792966 0.000000 0.000000 0.000000 6.521135 -0.163427 0.725194 -0.784996 0.401023 -0.858604 -5.200501 2.162007 9.379207 8.260872 -2.706911 -20.506725 0.000000 0.000000 0.000000 -25.433191 -8.458274 0.925589 -46.902439 -0.104995 -5.326153 -9.491399 -32.266743 3.678465 0.000000 0.000000 0.000000 23.191301 0.542145 -0.117834 56.023959 0.340815 -6.029016 3.137026 26.936260 1.973406 0.000000 0.000000 0.000000 
-0.018569 0.920398 0.308982 -1.839456 3.956578 1.065328 0.669255 0.726860 9.512637 0.267475 -1.047422 21.406442 -5.251260 -4.831185 9.825719 0.000000 0.000000 0.000000 4.631108 2.912592 -22.230268 1.099023 0.231206 15.964575 0.727098 -2.386260 10.061747 0.000000 0.000000 0.000000 7.781095 -0.116141 0.000574 0.011468 0.052577 -1.469452 -5.340173 2.869632 9.666249 7.446706 -2.200973 -20.134320 0.000000 0.000000 0.000000 -25.012502 -8.128166 0.480271 -47.087031 0.896115 -5.677436 -11.040250 -31.755512 3.992971 0.000000 0.000000 0.000000 21.990258 0.890473 0.363546 55.842259 1.555223 -5.495087 3.221354 26.742338 2.015939 0.000000 0.000000 0.000000 
-0.024392 0.928421 0.349195 -2.289588 4.484176 0.213470 2.840118 0.112356 2.880901 -1.812332 -1.235980 36.870112 -7.150413 -4.234506 16.893722 0.000000 0.000000 0.000000 5.368415 2.408890 -17.539993 1.893541 -0.013952 14.016183 0.521254 -2.351786 8.972590 0.000000 0.000000 0.000000 8.039542 -0.184227 0.759411 -0.092698 0.122365 -1.914828 -4.382825 4.005166 9.592304 7.759455 -2.346267 -19.438077 0.000000 0.000000 0.000000 -25.347707 -9.313099 0.667148 -46.311713 1.240532 -5.536081 -12.715488 -31.499896 4.330724 0.000000 0.000000 0.000000 20.868767 1.607565 1.138186 55.323617 2.077155 -5.234454 4.260098 27.960452 2.424900 0.000000 0.000000 0.000000 
-0.029038 0.933286 0.383966 -2.364968 3.820992 -0.978412 4.308081 -0.273812 -3.776310 -4.153539 -0.503045 48.994324 -6.523069 -0.858669 22.602968 0.000000 0.000000 0.000000 6.243666 1.814200 -12.483532 1.671811 0.023431 11.519986 0.831607 -1.295696 7.700515 0.000000 0.000000 0.000000 8.115009 -0.375642 2.789266 -0.429839 0.310975 -2.959020 -3.805797 6.252048 10.265668 9.302362 -2.957530 -20.021478 0.000000 0.000000 0.000000 -25.401516 -10.886146 0.918335 -45.271299 0.618598 -4.994164 -13.376748 -32.835177 4.562208 0.000000 0.000000 0.000000 21.229023 1.810370 1.810951 53.653272 4.167545 -4.429153 4.142210 28.747561 2.583627 0.000000 0.000000 0.000000 
-0.032587 0.938267 0.415192 -1.835615 2.843037 -1.331954 4.402605 -0.578897 -9.598149 -5.095727 0.255603 52.444591 -3.001924 3.530914 21.663413 0.000000 0.000000 0.000000 6.395731 1.218235 -8.451713 1.136516 0.100434 8.831788 1.416212 0.087051 7.160593 0.000000 0.000000 0.000000 7.413171 -0.408715 3.471915 -0.904535 0.505918 -2.558129 -3.318377 7.528338 10.104021 10.073248 -3.472410 -19.389808 0.000000 0.000000 0.000000 -25.522858 -11.286772 0.899945 -44.237236 -0.328872 -4.438786 -13.468070 -34.221036 4.727916 0.000000 0.000000 0.000000 21.944210 2.743331 2.578829 51.869701 6.111972 -3.629030 3.928049 30.273596 2.713812 0.000000 0.000000 0.000000 
-0.035275 0.942130 0.443692 -1.312743 1.562662 -1.780524 3.753324 -0.892489 -14.211338 -4.943309 0.569618 50.351610 1.915498 6.831419 8.208985 0.000000 0.000000 0.000000 6.155580 0.728573 -5.354428 0.984626 0.113666 7.616878 2.103668 1.599207 6.859829 0.000000 0.000000 0.000000 6.730844 -0.481127 4.619235 -1.391543 0.720641 -2.705067 -2.623599 9.015152 10.109975 10.680858 -3.751103 -19.463864 0.000000 0.000000 0.000000 -25.652310 -12.424520 1.312758 -44.001349 -1.086326 -4.059786 -13.094834 -34.868783 4.649359 0.000000 0.000000 0.000000 21.580212 3.141955 2.969425 51.205485 8.047050 -2.839830 3.056994 31.662937 2.681172 0.000000 0.000000 0.000000 
-0.037305 0.944370 0.470884 -0.753597 -0.141829 -1.732111 3.184823 -1.182821 -18.165446 -4.323782 0.663945 43.843752 3.614565 7.284838 -1.020057 0.000000 0.000000 0.000000 5.935314 0.294203 -2.648718 0.401823 0.173109 5.943982 2.921993 3.451341 6.459745 0.000000 0.000000 0.000000 6.360874 -0.510168 5.171441 -1.806622 0.894646 -2.739917 -2.394399 9.583732 10.183612 10.478240 -3.662355 -19.525709 0.000000 0.000000 0.000000 -25.845395 -12.849129 1.724322 -44.077521 -2.036665 -3.787899 -12.027195 -36.126742 4.519957 0.000000 0.000000 0.000000 20.521540 3.932699 3.222660 51.665303 10.059486 -1.911197 2.330662 33.444856 2.667468 0.000000 0.000000 0.000000 
-0.038698 0.944223 0.497822 -0.081964 -2.412033 -1.593823 2.795566 -1.305116 -20.256194 -4.081238 0.773532 29.940455 4.685439 11.258758 7.723155 0.000000 0.000000 0.000000 5.534102 -0.004703 -0.782421 -0.408959 0.292738 5.509577 3.703929 5.668673 5.368820 0.000000 0.000000 0.000000 5.977258 -0.528329 5.654284 -2.186614 1.046812 -2.693938 -2.555184 9.867718 10.142366 10.003043 -3.441024 -19.699597 0.000000 0.000000 0.000000 -25.604255 -12.262376 1.750457 -44.197682 -2.484690 -3.763010 -11.903748 -37.240030 4.693369 0.000000 0.000000 0.000000 20.191151 4.928997 3.521994 51.774397 11.284162 -1.334052 2.511282 34.972212 2.827705 0.000000 0.000000 0.000000 
-0.039860 0.942628 0.525190 0.074360 -5.254149 -1.181944 3.133169 -1.173465 -20.978803 -5.344009 0.984992 14.148656 6.198965 14.491201 18.261913 0.000000 0.000000 0.000000 5.615777 -0.272942 0.874142 -1.483205 0.423685 4.905860 4.645439 8.378434 4.321294 0.000000 0.000000 0.000000 5.673539 -0.520415 5.789644 -2.660454 1.231498 -3.126592 -2.084056 10.140397 10.648527 9.329111 -3.283425 -19.275613 0.000000 0.000000 0.000000 -25.823611 -12.421490 2.395907 -44.232548 -2.789465 -3.858592 -10.275781 -38.156573 4.414059 0.000000 0.000000 0.000000 20.004472 5.021632 3.203040 52.220394 11.543438 -1.182705 3.224467 37.361059 3.248294 0.000000 0.000000 0.000000 
-0.040515 0.940206 0.553698 0.247079 -8.247257 -1.590027 2.757688 -1.085817 -20.153129 -5.879605 0.874036 4.161360 3.799446 10.987635 20.784086 0.000000 0.000000 0.000000 5.325824 -0.678787 3.869223 -2.428648 0.459977 3.556426 5.659137 11.349557 3.401499 0.000000 0.000000 0.000000 5.219030 -0.519939 6.336502 -2.962670 1.346698 -2.898380 -2.285472 10.573196 11.172840 9.865075 -3.670392 -19.764796 0.000000 0.000000 0.000000 -25.122150 -12.477914 2.955742 -45.085078 -3.926227 -3.763448 -7.639913 -38.058060 3.625619 0.000000 0.000000 0.000000 20.287970 5.325171 3.078458 52.468806 11.232948 -1.324067 4.088831 40.332917 3.813807 0.000000 0.000000 0.000000 
-0.040760 0.936991 0.583358 0.143993 -11.275428 -1.537182 2.693846 -0.963266 -19.666564 -6.239913 0.922922 2.041050 3.832815 10.607694 21.028771 0.000000 0.000000 0.000000 5.129887 -0.901115 5.763330 -3.403572 0.558213 3.382997 6.544950 14.241274 2.457911 0.000000 0.000000 0.000000 4.476046 -0.469193 6.309110 -3.271996 1.468879 -2.662743 -1.907924 10.477640 11.472832 10.155285 -4.214606 -19.023117 0.000000 0.000000 0.000000 -24.289994 -12.474416 3.687353 -46.019637 -4.583703 -3.885362 -6.388606 -37.985699 3.382381 0.000000 0.000000 0.000000 21.375702 5.386062 2.641004 52.089485 10.330228 -1.682534 4.245993 42.108705 3.889970 0.000000 0.000000 0.000000 
